<svg width="152" height="152" viewBox="0 0 152 152" fill="none" xmlns="http://www.w3.org/2000/svg">
<path d="M76 0C34.1058 0 0 34.1058 0 76C0 117.894 34.1058 152 76 152C117.894 152 152 117.894 152 76C152 34.1058 117.894 0 76 0ZM76 136.266C42.7736 136.266 15.7339 109.226 15.7339 76C15.7339 42.7736 42.7736 15.7339 76 15.7339C109.226 15.7339 136.266 42.7736 136.266 76C136.266 109.226 109.226 136.266 76 136.266Z" fill="#8CE269" fill-opacity="0.09"/>
<path d="M88.9727 71.7287C85.2983 69.6874 81.4041 68.1799 77.5413 66.5783C75.3116 65.6675 73.176 64.5684 71.2917 63.0609C67.5859 60.0775 68.2768 55.2725 72.6421 53.3568C73.8669 52.8229 75.1545 52.6345 76.4735 52.5717C81.5297 52.289 86.3033 53.2312 90.8884 55.4295C93.1496 56.5287 93.9033 56.1832 94.6884 53.8279C95.5049 51.3155 96.1958 48.7717 96.9182 46.2593C97.4206 44.5634 96.7925 43.4328 95.1909 42.7419C92.2702 41.4543 89.2554 40.5122 86.0835 40.0411C81.9694 39.3816 81.9694 39.3816 81.938 35.2361C81.9066 29.3634 81.9066 29.3634 76.0653 29.3948C75.2173 29.3948 74.3694 29.3634 73.5215 29.3948C70.7892 29.489 70.3182 29.9601 70.2554 32.6923C70.224 33.9171 70.2554 35.1733 70.2554 36.3981C70.224 40.0725 70.224 40.0097 66.7066 41.2659C58.2273 44.3436 52.9826 50.1221 52.4173 59.3866C51.9149 67.5832 56.1859 73.1105 62.9066 77.1304C67.0521 79.6113 71.6372 81.0874 76.0339 83.0345C77.7611 83.7882 79.3942 84.6675 80.8074 85.8609C85.0471 89.3469 84.262 95.1568 79.2372 97.3551C76.5363 98.5171 73.7099 98.8312 70.8206 98.4543C66.3297 97.889 62.0273 96.727 58.0074 94.6229C55.6521 93.3981 54.9611 93.7122 54.1446 96.2874C53.4537 98.5171 52.8256 100.747 52.2289 102.977C51.4124 105.992 51.695 106.714 54.5843 108.096C58.2273 109.854 62.1529 110.765 66.1413 111.425C69.2504 111.927 69.376 112.053 69.4074 115.287C69.4074 116.763 69.4388 118.239 69.4388 119.684C69.4702 121.537 70.3496 122.605 72.2653 122.636C74.4322 122.668 76.5992 122.668 78.7661 122.636C80.5248 122.605 81.4355 121.631 81.4669 119.841C81.4669 117.831 81.5611 115.821 81.4983 113.811C81.4041 111.77 82.2834 110.734 84.262 110.2C88.7843 108.975 92.6471 106.525 95.6306 102.914C103.796 92.8642 100.655 78.1981 88.9727 71.7287Z" fill="#8CE269" fill-opacity="0.09"/>
</svg>
